<?xml version="1.0" encoding="UTF-8"?>
<svg id="Layer_1" xmlns="http://www.w3.org/2000/svg" viewBox="0 0 1196 1760">
  <defs>
    <style>
      .cls-1 {
        fill: #412e27;
      }
    </style>
  </defs>
  <path class="cls-1" d="M590.92,1717.84c1.17,1.52-1.98,2.14-2.04,3.05.13-.04.25-.08.39-.1,2.86-.45,5.16-2.46,7.85-3.42.87-.31,1.8-.34,2.58-.02.11-.75.12-1.52.02-2.26-.16-1.19.16-.99.47-.5.28-1.06.8-2.97.77-3-6.06-7.78-21.05-18.77-29.75-23.48-24.03-13.01-46.22,1.84-67.13,13.41-7.85,4.34-20.26,10.5-24.91,12.26-6.8,2.38-12.31,3.31-17.19,3.73-12.52,1.07-23-3.54-23.38-3.72-6.48-3.05-9.91-8.16-13.75-13.66-.45-.64-.92-1.36-1.41-2.12,7.57-10.7,14.43-25.16,12.15-34.16-1.65-5.42-7.84-6.09-12.38-5.02-6.73,1.18-12.11,6.46-15.23,12.7-3.78,6.76-4.64,15.15-2.04,22.55.89,2.58,1.91,5.12,3.08,7.59-.32.31-.65.62-1.01.96l-.94.74c-5.85,4.85-12.01,7.03-20.19,9.73-20.52,5.18-24.67,4.47-37.65,1.06-6.45-1.7-12.96-3.31-19.16-5.93-6.08-2.56-11.61-6.3-17.32-9.66-7.72-4.19-15.29-9.03-23.77-11.32-7.77-2.11-15.92-2.35-23.83-.98-2.56.28-5.1.8-7.57,1.58-5.02-2.85-9.81-5.69-15.03-8.07-17.49-7.99-25.51-7.4-43.44-3.54-8.64,1.85-18.64,6.39-26.77,10.02-11.61,5.21-22.7,11.62-34.18,17.1-8.01,3.4-19.95,7.08-31.27,5.87-9.75-1.03-21.12-7.39-30.22-17.2-4.31-4.54-8.11-9.63-11.48-14.99-.82-1.54-1.68-3.04-2.35-4.66-1.59-3.4-2.91-6.98-3.6-10.72-.26-1.72-.44-3.45-.52-5.19-.2-3.94.11-7.86.36-11.78.26-6.34,3.05-17.98,4.98-27.69,1.16-6.95,2.25-13.93,2.82-20.96.93-16.07.5-32.73-5.13-47.86-.32-.88-.68-1.74-1.07-2.6,6.87-3.4,12.64-8.74,17.28-14.8,4.41-5.53,8.14-11.56,11-18.02,4.08-8.82,8.9-18.47,6.13-28.38-2.39-9.32-6.27-18.19-8.91-27.45-2.8-8.84-4.49-18.01-7.88-26.68-2.54-7.4-6.3-14.31-8.69-21.76-1.97-6.5-2.21-12.84-1.55-19.13,1.94,1.79,4.04,3.39,6.38,4.7,5.17,3.09,10.83,6.97,17.17,5.9,10.77-2.04,17.84-12.28,21.54-21.84,3.32-7.59,2.87-17.01-4.81-21.75-11.82-7.09-27.95-3.96-37.69,5.29-1.54,1.45-2.91,3.02-4.13,4.69-2.64-3.56-4.84-6.92-6.27-9.44-2.32-4.12-4.59-8.32-6.17-12.78-1.54-4.59-2.71-9.29-4.03-13.94-2.73-9.52-5.87-19.77-6.46-26.58-1.07-11.71.74-18.18,4.59-30.18,3.88-12.7,9.86-23.03,18.82-36.82,10.04-15.14,18.15-32.78,16.6-51.3-.97-11.19-3.65-22.32-8.52-32.49-1.68-3.38-3.34-6.85-5.46-9.99.2-.41.39-.82.57-1.25,5.89-13.38,5.63-28.33,6.17-42.66-.08-15.99-1.45-31.98-3.63-47.82-1.66-9.76-2.94-19.61-3.06-29.51.12-8.41.75-13.82,1.88-20.58,6.26,1.91,13.23,2.67,19.17-.29,8.93-4.91,14.05-15.44,14.83-25.41.21-7.36-2.01-12.66-5.88-15.38.09-.07.18-.14.28-.21-.15.03-.3.06-.46.09-3.96-2.67-9.59-2.7-16.12.46-8.57,3.88-15.19,11.4-18.65,20.15-3.93-2.69-7.46-5.93-10.44-9.66-3.54-4.13-7.89-9.32-8.52-10.97-4.2-7.61-6.25-16.2-9.46-24.25-2.71-6.52-5.32-13.18-6.65-20.14-1.41-12.78-.82-26.06.2-38.87.56-8.04,5.12-20.47,9.4-30.41,4.24-10.28,8.64-20.5,13.11-30.69,3.34-9.69,7.16-19.24,9.84-29.14,2.63-10.71,3.9-21.91,2.82-32.92-.54-5.09-1.38-10.23-3.44-14.94,1.19-1.13,2.35-2.29,3.47-3.48,4.21-4.69,7.51-10.07,10.74-15.46,4.9-8.14,8.63-16.98,11.28-26.11,1.39-5.4,2.18-10.93,3.13-16.42,2.21-14.23,5.58-28.43,5.47-42.9-.66-8.64-1.5-17.28-2.75-25.85-1.21-7.59-1.73-9.02-2.49-17.22-.81-12.11.18-18.67,1.88-28.14.64-3.63,1.3-7.08,2.01-10.34,4.81.42,9.67,0,14.25-1.56,11.45-3.61,22.73-13.57,22.68-26.44-.25-9.79-9.46-16.41-18.75-14.15-7.97,1.66-13.95,7.75-18.45,14.26-2.44,3.57-4.38,7.41-5.99,11.4-.3-.14-.59-.26-.89-.4-10.63-5.47-25.62-22.27-31.11-33.56-4.8-9.14-7.35-19.24-10.15-29.13-6.36-25.41-1.59-47.71,10.43-66.54,4.62-7.62,10.53-14.31,15.65-21.57,6.13-9.01,11.2-19.01,13.25-29.81,1.78-10.44,1.4-21.27-1.3-31.51,7.75-8.45,13.58-18.83,18.04-29.3,1.64-4.44,3.01-9.03,3.58-13.74.7-5.82.33-11.72-.05-17.55-1.44-18.08-7.65-35.66-17.59-50.76-12.83-21.35-35.13-29.89-32.03-53.37,1.92-16.88,12.05-28.9,33.31-37.6,4.69-2.03,5.07-1.75,11.26-4.31,6.75-2.39,13.44-4.96,19.48-8.89,9.04-5.74,18.02-13.46,21.83-23.67,7.6,1.98,15.77,2.35,23.44,1.93,9.64-.2,19.24-1.23,28.7-3.13,15.43-3.1,31.1-7.13,44.62-15.53,9.21-5.38,18.89-12.5,28.62-12.03,5.72.11,10.68,1.25,14.71,3.63-6.04,9.36-10.77,20.67-5.68,31.12,5.88,11.89,19.63,3.47,23.13-5.8,3.79-8.22,3.6-18.16-1.85-25.63-1-1.73-2.22-3.26-3.59-4.62,1.33-1.52,2.88-2.92,6.32-6.13.97-.78,3.08-2.49,3.84-2.95.62-.44,1.25-.87,1.89-1.27,1.67-.97,3.42-1.79,5.22-2.48,2.1-.74,4.26-1.27,6.45-1.65,4.6-.89,3.62-.56,8.95-.98,8.03-.21,17.88.68,22.89,1.94,9.41,2.53,18.42,6.34,27.38,10.13,6.42,2.96,10.53,6.36,17.03,11.68,4.98,4.44,9.53,9.35,14.57,13.73,4.35,3.52,9.24,6.33,14.14,8.99,4.31,2.2,8.68,4.41,13.46,5.36,8.13,1.75,16.5,1.46,24.73.7,10.51-.89,20.92-3.77,30.28-8.7,5.52-2.93,10.29-7.01,15.08-10.99,3.39-2.75,6.22-6.1,9.19-9.3,6.44-6.57,11.63-12.34,17.39-16.22,7.43-5.21,19.41-8.56,32.29-7.94,12.22,1,23.35,4.62,36.45,9.26-3.58-3.9-7.3-7.74-11.89-10.45-4.64-3.11-9.71-5.72-15.26-6.59-7.2-1.35-14.55-.99-21.72.35-6.1,1.06-12.12,2.91-17.59,5.87-12.09,6.59-20.95,17.47-30.39,27.26-4.53,3.94-10.47,9.53-18.48,12.91-10.78,4.7-26.21,7.46-42.08,5.7-7.82-.47-20.82-8.03-27.2-12.91-5.3-4.38-9.86-9.59-14.97-14.19-4.04-3.73-8.52-6.94-13.08-9.99-3.32-2.25-7.03-3.8-10.72-5.32-3.83-1.56-7.6-3.27-11.5-4.66-6.75-2.55-13.67-4.56-20.87-5.25-8.69-1.01-17.49-1.05-26.1.63-12.44,2.13-22.8,10.15-31.06,19.47-3.49-1.94-7.44-3.11-11.45-3.5-6.01-.95-12.25-.42-17.95,1.75-7.79,2.64-20.89,11.38-23.97,13.12-11.13,6.17-17.74,7.77-29.98,10.99-13.11,3.16-21.27,4.32-34,4.89-10.79.63-17.58.41-26.95-2.68-.18-.06-.35-.13-.53-.19.42-7.12-.59-14.31-1.66-21.34-1.19-6.24-1.96-12.85-5.75-18.13-5.73-8.48-17.23-4.15-21.31,3.89-2.38,4.75-1.87,10.11-.94,15.16,1.21,6.4,2.98,13.18,7.38,18.15,3.19,3.66,6.97,6.43,11.11,8.51-.11,1.39-.29,2.33-1.16,4.96-.29.68-.61,1.34-.96,1.99-2.67,4.23-2.07,3.22-6.02,6.94-5.66,4.37-5.73,4.57-11.19,7.54-5,2.56-10.35,4.31-15.55,6.41-11.52,3.97-22.8,9.18-32.11,17.24-9.09,7.48-16.07,17.47-19.31,28.88-2.92,9.92-3.35,20.88,1.1,30.41,4.36,9.46,12.2,16.45,19.15,23.94,5.28,5.39,11.01,14.22,12.79,17.4,9.36,17.06,13.12,30.74,14,48.3.37,7.54.55,9.59-.63,14.5-1.55,6.2-1.37,5.91-4.66,12.77-2.48,4.84-4.83,8.89-7.25,12.29-1.38-2.99-3.13-5.77-5.67-7.87-9.43-8.25-23.94-9.4-34.4-2.42-9.23,5.18-16.96,15.94-14.17,26.95,1.44,4.86,5.81,8.08,10.3,9.9,10.44,3.96,22.04.32,31.36-4.97,1.39-.75,2.73-1.58,4.04-2.45,2.22,9.33,2.14,18.55.85,26.13-1.73,8.8-6.54,17.93-11.46,24.56-9.79,12.67-19.4,25.78-24.9,41.01-4.58,11.74-6.14,24.6-5.55,37.15.78,12.13,3.95,23.88,7.63,35.4,5.92,20,24.82,45.13,44.86,52.36-.56,2.25-1.08,4.51-1.58,6.76-1.78,9.1-3.51,18.26-4.12,27.52-1.12,14.71,3.16,29.01,4.11,43.59,1.86,13.45.89,22.95-.99,33.58-1.48,9.45-2.95,18.91-4.55,28.34-2.67,16.1-11.76,31.84-18.94,40.27-.18.18-.33.33-.48.48-1.74-2.43-3.73-4.67-6.01-6.57-8.16-6.35-19.79-3.44-26.08,4.16-5.15,5.55-7.98,15.15-2.08,21.16,6.64,6.02,16.78,4.07,24,.1,1.16-.68,2.3-1.4,3.42-2.14,2.14,4.95,2.41,8.63,3,14.9.35,11.24-.26,15.91-2.52,26.05-2.09,8.43-5.42,16.47-8.15,24.7-3.43,8.85-7.58,17.41-11.12,26.23-4.92,12.22-10.7,24.32-13.03,37.38-1.91,12.84-2.27,25.89-1.96,38.85.27,9.88,3.42,19.39,7.3,28.38,3.3,8.12,5.36,16.79,9.57,24.51,3.48,6.26,8.42,11.51,13.13,16.84,2.23,2.41,4.88,4.37,7.55,6.25,2.45,1.8,4.99,3.5,7.62,5.02.27,1.84-.17,17.64-.62,23.66-1.26,16.88,3.1,33.4,4.22,50.14,1.99,18.13,2.31,36.41.49,54.56-.17,1.18-.33,2.37-.53,3.55-.4,2.62-.88,5.24-1.61,7.79-7.93-6.51-18.93-9.35-28.9-6.37-11.42,2.42-18.35,14.12-12.98,24.82,7.28,14.55,21.09,12.15,32.68,4.28,2.29-1.5,4.49-3.17,6.53-5.01.95,1.69,1.88,3.62,3.15,6.1,2.65,5.24,4.47,10.84,6.05,16.47,1.79,7.56,2.6,11.95,2.5,21.15-.57,10.44-4.15,20.62-11.08,32.08-2.69,4.56-11.74,18.27-16.45,27.75-2.91,5.93-5.12,12.17-7.25,18.41-2.3,6.72-4.22,13.58-4.91,20.67-1.33,10.2,1,20.4,3.65,30.21,2.26,7.95,4.18,15.99,6.49,23.92,3.7,10.72,9.76,20.55,16.83,29.43-1.16,4.07-1.85,8.3-2.2,12.45-1.22,8.87-.27,17.93,2.78,26.36,2.48,6.33,5.43,12.48,7.59,18.94,2.9,7.77,4.46,15.92,6.69,23.88,2.5,9.14,5.83,18.03,8.58,27.09,2.6,8.78.62,12.83-3.3,21.69-1.46,3.36-2.97,6.7-4.73,9.91-.05.09-.11.18-.16.27-4.84,7.03-4.98,7.92-10.33,12.98-3.08,2.32-5.25,3.57-7.99,4.61-.12-.21-.24-.42-.36-.63-4.52-7.83-8.34-17.39-15.91-23.17-4.1-3.1-8.64-5.87-13.8-6.74-3.64-.85-7.42-.1-10.86,1.19-3.74,1.27-7.34,3.1-10.34,5.68-7.69,6.44-6.3,13.73-2.74,18.59,3.64,6.17,8.67,11.59,14.89,15.27,9.68,5.89,21.24,4.11,31.79,1.01,7.16,14.76,7.76,28.49,7.68,45.69-.62,11.73-1.56,19.81-4.39,32.85-2.74,14.66-6.02,30.18-2.1,44.92,6.37,20.09,24.24,40.07,43.57,46.06,13.67,3.85,28.12.64,41.12-4.46,8.63-3.54,16.64-8.54,25.1-12.51,13.12-6.76,25.8-10.62,34.81-12.81,5.7-1.39,17.44-3.38,23.3-2.96,14.16,1.02,24.47,9.46,24.99,9.73-1.23,1.21-2.38,2.54-3.42,3.99-3.37,4.36-6.12,9.77-5.79,15.57.52,8.72,4.05,18.15,11.73,22.26,13.81,6.92,25.81-11.68,26.79-24.67.77-5.75-.91-11.31-4.03-15.86,1.21,0,2.54.07,4.06.19,16.09.9,31.08,14.4,46.56,21.84,7.03,3.38,14.62,5.13,22.08,7.08,6.42,1.68,15.86,2.87,20.82,2.81,7.53-.1,18.68-2.53,28.1-6.21,8.35-2.99,16.29-7.37,22.88-13.64,4.29,6.45,10.44,10.55,16.54,14.04,4.02,2.3,16.33,4.57,27.48,3.37,4.69-.5,9.4-1.11,14-2.27,18.79-4.74,40-21.02,54.62-26.26,12.69-4.54,25.6-7.74,37.84-.27,7.5,4.58,21.64,12.83,26.99,19.78ZM82.96,1363.85c5.19-1.28,13.91-.73,18.51,4.34,1.31,1.41,2.3,3.65,2.28,5.77,0,.33,0,.67-.04,1-.02.1-.05.28-.1.58-.07.66-.51,2.05-.76,2.83-1.8,4.41-2.22,4.87-3.37,6.65-.38.56-.79,1.09-1.22,1.62-.37.4-.76.78-1.15,1.15-.2.15-.41.3-.62.45-.11.05-.21.11-.32.16-.26.08-.53.15-.8.2-.53.02-1.05,0-1.58-.07-2.78-.66-5.32-2.05-7.78-3.45-3.35-1.97-2.38-1.26-6.1-3.9-2.71-2.32-5.42-5.12-7.96-8.05,2.42-5.5,5.13-7.46,11.01-9.28ZM88.55,968.76c.79-.69,1.73-.14,2.6.87,1.46,1.68,2.75,4.64,2.92,5.23,1.41,4.82-.12,9.43-2.45,13.68-.28.43-.56.86-.86,1.28-.12.12-.24.24-.36.36-.18.05-.37.08-.55.11-4.77.15-4.06-.17-9.32-1.47-2.03-.67-3.8-1.38-5.4-2.12,2.81-7.15,6.98-12.3,13.42-17.94ZM106.76,523.57c.42-.21.84-.41,1.27-.59.56-.15,1.2-.29,1.67-.39.4-.02.79-.02,1.19,0,3.51.25,8.09,3.42,7.72,9.4-.08.43-.18.86-.3,1.28-.06.12-.1.25-.17.36-.1.22-.23.42-.34.64-.22.33-.44.66-.68.98-.22.24-.45.48-.68.7-.35.27-.71.53-1.08.77-5.42,3.01-10.92,3.97-17.5,2.62,2.38-7.08,5.25-12.48,8.9-15.78ZM287.26,63.82c.98,1.2,1.86,2.54,2.62,4.04,4.17,7.61,2.66,12.58.76,17.13-.19.43-.42.84-.64,1.26-.03.05-.06.1-.09.14-.05.05-.09.09-.12.13-.03.02-.07.03-.1.05-.15.04-.31.07-.47.1-.29.01-.59,0-.88-.02-.34-.1-.82-.25-1.24-.43-.74-.57-1.35-1.29-1.88-2.06-.84-1.46-1.46-3.05-1.79-4.71-.17-1.18-.24-2.37-.19-3.57.09-4.46,1.91-8.38,4.02-12.05ZM131.79,67.59c-3.86-3.73-4.66-4.67-6.48-9.6-1.56-5.15-1.51-5.62-1.96-11.49-.06-1.23-.09-2.47-.05-3.7.02-.43.07-.85.12-1.28,0-.02.01-.05.02-.08.35.14.68.29.92.42.77.57,1.42,1.28,1.99,2.05,2.57,4.28,3.29,9.37,4.34,14.19.52,2.71,1.02,6.03,1.39,9.74-.09-.08-.18-.16-.28-.24ZM68.02,326.36c-5.59,3.02-5.39,2.93-9.83,4.26-4.63.97-3.36,1.11-8.88.91-8.37-.91-12.83-6.2-12.05-10.7.73-3.11.07-1.66,1.4-4.16.05-.07.11-.16.18-.26.15-.16.31-.32.48-.48.91-.72,1.86-1.38,2.84-1.99.44-.23,1.37-.71,2.16-1.06,1.08-.36,2.18-.62,3.3-.8.82-.08,1.65-.12,2.48-.11,3.61.1,6.73.64,11.95,3.61,2,1.36,3.91,2.95,5.28,4.95.3.53.83,1.46,1.05,1.95.45.97.85,1.95,1.24,2.93-.52.33-1.06.65-1.6.95ZM45.25,740.05c-.57.29-1.15.54-1.74.78-.86.28-1.74.52-2.64.68-.3.06-.6.1-.89.14-1.07.08-2.14.05-3.2-.1-.49-.11-1.22-.3-1.63-.47-.38-.09-.9-.34-1.28-.56-2.34-1.92-2.14-1.36-2.93-4.26-.02-.34-.04-.69-.07-1.03.03-.17.05-.35.08-.52.13-.32.29-.62.45-.93.11-.16.23-.33.34-.49.06-.06.12-.13.18-.19.09-.06.17-.13.26-.19.18-.08.36-.16.54-.25.39-.12.78-.22,1.18-.3.3-.01.61-.02.92,0,.55,0,1.1.04,1.64.12.04,0,.08.01.12.02,1.34.29,2.65.75,3.86,1.42,2.08,1.53,4.1,3.93,5.5,5.81-.21.12-.42.22-.67.31ZM39.52,1155.97c-7.55-1.89-10.95-10.17-9.4-15.46,0,0,0,0,0-.01.01,0,.03,0,.04-.01,7.07-2.24,16.63-.65,23.12,4.59,1.48,1.24,2.65,2.33,3.64,3.37-5.54,5.15-12.74,8.41-17.39,7.54ZM21.04,1537.58c-6.35-5-11.39-12.37-11.37-16.55,0-.03,0-.05,0-.08.06-.04.12-.09.18-.13,3.67-1.88,3.22-1.6,5.71-2.34.56-.15,1.13-.27,1.7-.37.32-.01.8-.03,1.25-.01,4.48.15,8.75,3.2,12.19,5.75,6.66,4.94,10.27,11.01,14.57,17.91-9.83,2.54-16.65,1.87-24.23-4.18ZM259.81,1725.87c-.26.42-.53.82-.82,1.21-.15.17-.3.33-.45.48-.09.07-.2.15-.31.24-.14.06-.25.11-.35.16-3.25.66-7.96-2.87-10.28-8.27-2.04-5.41-2.15-6.09-2.36-10.28-.01-.37.01-.73.03-1.1.07-.33.15-.66.24-.99.16-.41.34-.81.54-1.21.45-.73.95-1.44,1.46-2.13.25-.29.49-.6.75-.87.28-.31.59-.59.88-.88.54-.45,1.09-.86,1.66-1.25.37-.2.71-.38,1.02-.54,1.26.76,2.37,1.53,3.23,2.3,8.72,7.67,8.39,15.62,4.76,23.15ZM419.16,1688.85c-.11.17-.2.32-.29.48-1.11-2.61-2.06-5.47-2.7-8.55-.41-2.64.08-6.83,2.1-9.89.06-.06.12-.13.18-.19.04-.03.08-.05.12-.08.11-.06.23-.12.35-.17.54-.17,1.1-.31,1.66-.42,2.44-.18,2-.14,3.6.51.04.02.07.05.11.07.17.14.32.3.46.48.04.08.09.16.12.24.09.25.15.51.21.76.03.49.08,1.14.06,1.55,0,.2-.02.35-.02.48-.09.56-.19,1.11-.32,1.66-.9,3.61-1.09,3.68-1.43,4.74-2.44,5.78-2.74,5.53-4.21,8.34Z"/>
  <path class="cls-1" d="M596.27,1715.09c-.4,2.99-12.84,7.19-10.02,8.31,2.17.87,7.24-2.6,9.17-3.92s7.17.67,8.59-1.18c5.35-6.94,17.5-15.58,25-20.16,12.23-7.47,28.21-4.35,40.9.19,14.62,5.24,35.83,21.52,54.62,26.26,4.6,1.16,9.31,1.77,14,2.27,11.15,1.2,23.46-1.07,27.48-3.37,6.11-3.49,12.25-7.59,16.54-14.04,6.59,6.27,14.53,10.64,22.88,13.64,9.42,3.68,20.57,6.1,28.1,6.21,4.96.07,14.4-1.13,20.82-2.81,7.46-1.95,15.05-3.7,22.08-7.08,15.48-7.44,30.47-20.93,46.56-21.84,1.52-.12,2.85-.18,4.06-.19-3.12,4.54-4.8,10.11-4.03,15.86.98,12.99,12.98,31.6,26.79,24.67,7.68-4.12,11.21-13.55,11.73-22.26.33-5.8-2.42-11.21-5.79-15.57-1.04-1.45-2.19-2.78-3.42-3.99.52-.27,10.83-8.71,24.99-9.73,5.86-.42,17.6,1.57,23.3,2.96,9.01,2.2,21.69,6.05,34.81,12.81,8.46,3.97,16.47,8.96,25.1,12.51,13,5.11,27.45,8.31,41.12,4.46,19.33-5.99,37.2-25.97,43.57-46.06,3.92-14.75.64-30.27-2.1-44.92-2.83-13.04-3.77-21.12-4.39-32.85-.08-17.2.52-30.93,7.68-45.69,10.55,3.1,22.11,4.88,31.79-1.01,6.22-3.67,11.25-9.1,14.89-15.27,3.56-4.87,4.95-12.15-2.74-18.59-2.99-2.58-6.6-4.41-10.34-5.68-3.44-1.3-7.22-2.04-10.86-1.19-5.16.87-9.7,3.64-13.8,6.74-7.57,5.78-11.38,15.34-15.91,23.17-.12.21-.24.42-.36.63-2.74-1.04-4.91-2.28-7.99-4.61-5.35-5.07-5.49-5.96-10.33-12.98-.05-.09-.11-.18-.16-.27-1.76-3.22-3.27-6.56-4.73-9.91-3.92-8.85-5.91-12.91-3.3-21.69,2.76-9.06,6.08-17.95,8.58-27.09,2.24-7.96,3.8-16.11,6.69-23.88,2.16-6.46,5.11-12.6,7.59-18.94,3.04-8.43,3.99-17.49,2.78-26.36-.35-4.16-1.04-8.38-2.2-12.45,7.07-8.88,13.13-18.71,16.83-29.43,2.31-7.93,4.23-15.97,6.49-23.92,2.65-9.81,4.97-20.01,3.65-30.21-.69-7.08-2.61-13.95-4.91-20.67-2.12-6.24-4.34-12.48-7.25-18.41-4.71-9.48-13.75-23.19-16.44-27.75-6.92-11.46-10.51-21.63-11.08-32.08-.1-9.21.71-13.6,2.5-21.15,1.58-5.63,3.4-11.23,6.05-16.47,1.27-2.48,2.2-4.41,3.15-6.1,2.04,1.84,4.24,3.51,6.53,5.01,11.59,7.88,25.4,10.28,32.68-4.28,5.37-10.7-1.55-22.4-12.98-24.82-9.98-2.98-20.98-.13-28.9,6.37-.73-2.55-1.22-5.17-1.61-7.79-.19-1.18-.36-2.37-.53-3.55-1.82-18.15-1.5-36.44.49-54.56,1.12-16.74,5.48-33.26,4.22-50.14-.45-6.02-.89-21.83-.62-23.66,2.63-1.52,5.17-3.22,7.62-5.02,2.67-1.88,5.32-3.84,7.55-6.25,4.71-5.33,9.65-10.57,13.13-16.84,4.21-7.72,6.27-16.39,9.57-24.51,3.88-8.99,7.03-18.5,7.3-28.38.32-12.96-.04-26.01-1.96-38.85-2.33-13.06-8.1-25.16-13.03-37.38-3.53-8.82-7.68-17.38-11.11-26.23-2.73-8.23-6.06-16.27-8.15-24.7-2.26-10.14-2.87-14.81-2.52-26.05.59-6.27.86-9.95,3-14.9,1.12.74,2.26,1.47,3.42,2.14,7.22,3.97,17.35,5.92,24-.1,5.91-6.01,3.07-15.61-2.08-21.16-6.29-7.6-17.92-10.51-26.08-4.16-2.28,1.9-4.27,4.14-6.01,6.57-.16-.16-.31-.31-.48-.48-7.18-8.43-16.27-24.17-18.94-40.27-1.59-9.43-3.07-18.89-4.55-28.34-1.88-10.63-2.85-20.12-.99-33.58.95-14.59,5.23-28.89,4.11-43.59-.61-9.27-2.34-18.42-4.12-27.52-.5-2.25-1.02-4.51-1.58-6.76,20.05-7.22,38.94-32.36,44.86-52.36,3.68-11.52,6.85-23.27,7.63-35.4.58-12.56-.97-25.41-5.55-37.15-5.5-15.23-15.11-28.33-24.9-41.01-4.91-6.63-9.72-15.75-11.46-24.56-1.29-7.58-1.37-16.8.85-26.13,1.31.86,2.65,1.69,4.04,2.45,9.32,5.29,20.92,8.93,31.36,4.97,4.49-1.82,8.86-5.04,10.3-9.9,2.79-11.01-4.93-21.77-14.17-26.95-10.46-6.98-24.97-5.83-34.4,2.42-2.54,2.1-4.29,4.88-5.67,7.87-2.41-3.41-4.77-7.46-7.25-12.29-3.3-6.86-3.12-6.57-4.66-12.77-1.18-4.91-1-6.96-.63-14.5.88-17.56,4.64-31.24,14-48.3,1.78-3.19,7.51-12.02,12.79-17.4,6.94-7.48,14.79-14.48,19.15-23.94,4.44-9.53,4.01-20.49,1.1-30.41-3.25-11.41-10.23-21.41-19.31-28.88-9.3-8.05-20.59-13.26-32.11-17.24-5.19-2.1-10.55-3.85-15.55-6.41-5.46-2.98-5.54-3.17-11.19-7.54-3.95-3.72-3.35-2.71-6.02-6.94-.35-.65-.67-1.31-.96-1.99-.88-2.63-1.06-3.56-1.16-4.96,4.14-2.08,7.92-4.85,11.11-8.51,4.4-4.97,6.17-11.76,7.38-18.15.93-5.06,1.44-10.42-.94-15.16-4.08-8.05-15.58-12.37-21.31-3.89-3.79,5.28-4.55,11.89-5.75,18.13-1.07,7.02-2.08,14.22-1.66,21.34-.18.06-.35.13-.53.19-9.37,3.09-16.16,3.3-26.95,2.68-12.73-.56-20.88-1.73-34-4.89-12.24-3.21-18.85-4.82-29.98-10.99-3.08-1.74-16.18-10.48-23.97-13.12-5.7-2.17-11.94-2.7-17.95-1.75-4.01.38-7.96,1.55-11.45,3.5-8.26-9.32-18.61-17.35-31.06-19.47-8.61-1.68-17.41-1.64-26.1-.63-7.2.69-14.12,2.7-20.87,5.25-3.9,1.39-7.67,3.1-11.5,4.66-3.69,1.52-7.4,3.07-10.72,5.32-4.56,3.05-9.04,6.26-13.08,9.99-5.11,4.6-9.67,9.81-14.97,14.19-6.38,4.88-19.38,12.44-27.2,12.91-15.87,1.75-31.3-1-42.08-5.7-8.01-3.38-13.95-8.96-18.48-12.91-9.44-9.79-18.3-20.67-30.39-27.26-5.47-2.96-11.49-4.82-17.59-5.87-7.17-1.35-14.52-1.7-21.72-.35-5.55.88-10.63,3.48-15.26,6.59-4.58,2.71-8.31,6.54-11.89,10.45,13.1-4.64,24.23-8.26,36.45-9.26,12.88-.62,24.87,2.73,32.29,7.94,5.76,3.88,10.96,9.65,17.39,16.22,2.96,3.19,5.79,6.55,9.19,9.3,4.79,3.99,9.56,8.06,15.08,10.99,9.36,4.93,19.77,7.81,30.28,8.7,8.23.76,16.6,1.06,24.73-.7,4.77-.95,9.15-3.16,13.46-5.36,4.91-2.66,9.79-5.46,14.14-8.99,5.03-4.38,9.59-9.28,14.57-13.73,6.5-5.33,10.61-8.72,17.03-11.68,8.97-3.79,17.97-7.61,27.38-10.13,5.02-1.26,14.87-2.15,22.89-1.94,5.32.41,4.35.09,8.95.98,2.19.38,4.36.91,6.45,1.65,1.8.69,3.55,1.51,5.22,2.48.64.41,1.27.83,1.89,1.27.76.46,2.87,2.16,3.84,2.95,3.44,3.21,4.99,4.61,6.32,6.13-1.37,1.36-2.59,2.9-3.59,4.62-5.45,7.46-5.64,17.4-1.85,25.63,3.5,9.28,17.25,17.69,23.13,5.8,5.09-10.45.36-21.76-5.68-31.12,4.03-2.38,8.99-3.51,14.71-3.63,9.73-.47,19.41,6.64,28.62,12.03,13.51,8.4,29.18,12.42,44.62,15.53,9.46,1.9,19.06,2.93,28.7,3.13,7.67.41,15.84.05,23.44-1.93,3.81,10.21,12.79,17.93,21.83,23.67,6.03,3.93,12.73,6.5,19.48,8.89,6.19,2.55,6.58,2.28,11.26,4.31,21.25,8.7,31.38,20.72,33.31,37.6,3.09,23.48-19.2,32.02-32.03,53.37-9.94,15.1-16.15,32.68-17.59,50.76-.38,5.83-.75,11.73-.05,17.55.57,4.71,1.94,9.3,3.58,13.74,4.46,10.47,10.3,20.85,18.04,29.3-2.7,10.24-3.07,21.07-1.3,31.51,2.05,10.8,7.12,20.8,13.25,29.81,5.12,7.26,11.04,13.95,15.65,21.57,12.02,18.83,16.8,41.13,10.43,66.54-2.8,9.89-5.35,20-10.15,29.13-5.49,11.29-20.48,28.08-31.11,33.56-.3.14-.59.26-.89.4-1.61-3.99-3.55-7.83-5.99-11.4-4.5-6.51-10.48-12.6-18.45-14.26-9.29-2.25-18.5,4.36-18.75,14.15-.06,12.88,11.23,22.84,22.68,26.44,4.57,1.56,9.44,1.98,14.25,1.56.71,3.25,1.38,6.7,2.01,10.34,1.7,9.47,2.69,16.03,1.88,28.14-.77,8.2-1.29,9.63-2.49,17.22-1.25,8.57-2.09,17.21-2.75,25.85-.11,14.47,3.26,28.67,5.47,42.9.95,5.49,1.74,11.02,3.13,16.42,2.65,9.13,6.38,17.97,11.28,26.11,3.23,5.39,6.54,10.77,10.74,15.46,1.12,1.19,2.28,2.35,3.47,3.48-2.06,4.71-2.9,9.85-3.44,14.94-1.08,11.02.19,22.21,2.82,32.92,2.69,9.9,6.5,19.45,9.84,29.14,4.48,10.18,8.87,20.4,13.11,30.69,4.29,9.94,8.84,22.36,9.4,30.41,1.03,12.81,1.61,26.08.2,38.87-1.33,6.96-3.94,13.63-6.65,20.14-3.22,8.05-5.27,16.64-9.46,24.25-.63,1.65-4.98,6.84-8.52,10.97-2.98,3.73-6.5,6.98-10.44,9.66-3.47-8.74-10.08-16.27-18.65-20.15-6.53-3.15-12.17-3.13-16.12-.46-.15-.03-.3-.06-.46-.09.09.07.19.14.28.21-3.87,2.72-6.09,8.02-5.88,15.38.79,9.96,5.9,20.5,14.83,25.41,5.95,2.96,12.92,2.2,19.18.29,1.13,6.75,1.75,12.17,1.88,20.58-.12,9.91-1.4,19.75-3.06,29.51-2.18,15.84-3.55,31.83-3.63,47.82.54,14.33.27,29.28,6.17,42.66.18.42.37.84.57,1.25-2.12,3.14-3.78,6.61-5.46,9.99-4.87,10.17-7.55,21.3-8.52,32.49-1.56,18.51,6.56,36.16,16.6,51.3,8.96,13.79,14.94,24.12,18.82,36.82,3.85,12,5.67,18.48,4.59,30.18-.59,6.8-3.73,17.06-6.46,26.58-1.32,4.65-2.49,9.35-4.03,13.94-1.59,4.46-3.85,8.66-6.17,12.78-1.43,2.52-3.63,5.88-6.27,9.44-1.22-1.67-2.59-3.24-4.13-4.69-9.74-9.25-25.87-12.37-37.69-5.29-7.67,4.74-8.13,14.16-4.81,21.75,3.7,9.56,10.77,19.8,21.54,21.84,6.33,1.07,12-2.8,17.17-5.9,2.34-1.31,4.44-2.91,6.38-4.7.66,6.28.41,12.63-1.55,19.13-2.39,7.45-6.15,14.36-8.69,21.76-3.38,8.66-5.08,17.83-7.88,26.68-2.63,9.26-6.51,18.13-8.91,27.45-2.77,9.91,2.06,19.56,6.13,28.38,2.86,6.46,6.59,12.49,11,18.02,4.64,6.06,10.41,11.4,17.28,14.8-.38.85-.74,1.71-1.06,2.6-5.63,15.13-6.06,31.79-5.13,47.86.57,7.03,1.66,14.01,2.82,20.96,1.93,9.71,4.72,21.35,4.98,27.69.25,3.92.56,7.84.36,11.78-.08,1.74-.26,3.47-.52,5.19-.69,3.74-2.01,7.32-3.6,10.72-.67,1.62-1.53,3.12-2.35,4.66-3.37,5.37-7.17,10.45-11.48,14.99-9.1,9.81-20.47,16.16-30.22,17.2-11.32,1.21-23.26-2.47-31.27-5.87-11.48-5.47-22.57-11.89-34.18-17.1-8.13-3.63-18.13-8.16-26.77-10.02-17.93-3.86-25.95-4.45-43.44,3.54-5.22,2.39-10.01,5.23-15.03,8.07-2.47-.77-5.01-1.3-7.57-1.58-7.91-1.37-16.06-1.13-23.83.98-8.48,2.28-16.05,7.12-23.77,11.32-5.71,3.36-11.24,7.1-17.32,9.66-6.2,2.62-12.71,4.23-19.16,5.93-12.98,3.41-17.14,4.12-37.65-1.06-8.18-2.7-14.34-4.88-20.19-9.73l-.94-.74c-.36-.34-.69-.65-1.01-.96,1.17-2.47,2.19-5.01,3.08-7.59,2.6-7.4,1.74-15.79-2.04-22.55-3.12-6.25-8.5-11.52-15.23-12.7-4.54-1.07-10.73-.41-12.38,5.02-2.28,9,4.58,23.46,12.15,34.16-.49.76-.96,1.48-1.41,2.12-3.84,5.5-7.27,10.61-13.75,13.66-.38.18-10.86,4.79-23.38,3.72-4.88-.42-10.39-1.35-17.19-3.73-4.65-1.76-17.06-7.91-24.91-12.26-20.9-11.56-43.09-26.42-67.13-13.41-8.7,4.71-18.42,11.2-24.48,18.98-.04.05-.07.09-.11.14-1.82,2.35-3.52,4.94-3.91,7.87ZM1124.05,1373.13c-2.54,2.93-5.24,5.73-7.96,8.05-3.72,2.65-2.75,1.93-6.1,3.9-2.46,1.4-5,2.79-7.78,3.45-.52.06-1.05.09-1.58.07-.27-.05-.53-.13-.8-.2-.11-.05-.21-.11-.32-.16-.21-.14-.42-.3-.62-.45-.4-.37-.79-.75-1.15-1.15-.42-.53-.84-1.06-1.22-1.62-1.15-1.78-1.57-2.25-3.37-6.65-.25-.78-.7-2.17-.76-2.83-.05-.31-.08-.49-.1-.58-.03-.33-.04-.67-.04-1-.02-2.12.97-4.36,2.28-5.77,4.6-5.07,13.33-5.62,18.51-4.34,5.88,1.82,8.59,3.78,11.01,9.28ZM1120.87,986.7c-1.61.73-3.38,1.44-5.4,2.12-5.26,1.3-4.54,1.62-9.32,1.47-.18-.04-.37-.06-.55-.11-.12-.12-.25-.24-.36-.36-.3-.42-.59-.84-.86-1.28-2.33-4.25-3.85-8.86-2.45-13.68.17-.59,1.46-3.55,2.92-5.23.87-1.01,1.81-1.56,2.6-.87,6.45,5.64,10.62,10.79,13.42,17.94ZM1098.14,539.35c-6.58,1.35-12.09.39-17.5-2.62-.37-.24-.73-.5-1.08-.77-.24-.23-.46-.46-.68-.7-.24-.32-.46-.65-.68-.98-.11-.21-.24-.42-.34-.64-.06-.12-.11-.24-.17-.36-.12-.42-.22-.85-.3-1.28-.37-5.97,4.21-9.14,7.72-9.4.4-.03.79-.03,1.19,0,.47.1,1.11.23,1.67.39.43.18.86.38,1.27.59,3.66,3.3,6.53,8.7,8.9,15.78ZM912.76,75.88c.05,1.19-.02,2.39-.19,3.57-.33,1.66-.95,3.25-1.79,4.71-.53.77-1.14,1.49-1.88,2.06-.41.18-.89.33-1.24.43-.29.03-.59.04-.88.02-.16-.03-.32-.06-.47-.1-.03-.02-.07-.03-.1-.05-.04-.04-.08-.08-.12-.13-.03-.05-.06-.09-.09-.14-.22-.41-.45-.83-.64-1.26-1.9-4.55-3.41-9.52.76-17.13.76-1.5,1.64-2.84,2.62-4.04,2.12,3.67,3.93,7.6,4.02,12.05ZM1063.93,67.83c.37-3.71.87-7.03,1.39-9.74,1.06-4.82,1.78-9.91,4.34-14.19.57-.77,1.22-1.48,1.99-2.05.24-.12.57-.28.92-.42,0,.03.01.05.02.08.04.42.1.85.12,1.28.04,1.23,0,2.47-.05,3.7-.45,5.87-.41,6.35-1.96,11.49-1.82,4.94-2.62,5.88-6.48,9.6-.09.08-.18.16-.28.24ZM1126.38,325.41c.39-.98.79-1.96,1.24-2.93.22-.5.75-1.42,1.05-1.95,1.37-2,3.28-3.59,5.28-4.95,5.22-2.97,8.34-3.51,11.95-3.61.83,0,1.65.03,2.48.11,1.12.19,2.22.45,3.3.8.79.34,1.72.83,2.16,1.06.98.61,1.93,1.27,2.84,1.99.16.16.33.33.48.48.07.1.13.18.18.26,1.33,2.51.67,1.05,1.4,4.16.78,4.5-3.68,9.79-12.05,10.7-5.52.19-4.24.06-8.88-.91-4.43-1.32-4.24-1.24-9.83-4.26-.54-.3-1.08-.62-1.6-.95ZM1150.09,739.74c1.4-1.88,3.42-4.28,5.5-5.81,1.2-.67,2.51-1.13,3.86-1.42.04,0,.08-.01.12-.02.54-.08,1.09-.12,1.64-.12.31-.02.61-.01.92,0,.4.08.79.18,1.18.3.18.08.36.16.54.25.09.06.18.12.26.19.06.06.12.13.18.19.11.16.23.33.34.49.16.31.32.61.45.93.03.17.05.35.08.52-.02.34-.04.69-.07,1.03-.79,2.9-.6,2.34-2.93,4.26-.39.21-.9.47-1.28.56-.41.18-1.14.36-1.63.47-1.06.14-2.14.18-3.2.1-.3-.05-.6-.08-.89-.14-.9-.15-1.77-.39-2.64-.68-.59-.24-1.17-.5-1.74-.78-.24-.1-.45-.2-.67-.31ZM1139.09,1148.43c.99-1.04,2.16-2.13,3.64-3.37,6.49-5.23,16.05-6.82,23.12-4.59.01,0,.03,0,.04.01,0,0,0,0,0,.01,1.54,5.29-1.86,13.58-9.4,15.46-4.65.87-11.85-2.39-17.39-7.54ZM1150.73,1541.76c4.3-6.9,7.9-12.97,14.57-17.91,3.44-2.55,7.71-5.59,12.19-5.75.45-.02.92,0,1.25.01.57.1,1.14.22,1.7.37,2.49.75,2.05.46,5.71,2.34.06.04.12.08.18.13,0,.03,0,.05,0,.08.02,4.18-5.02,11.55-11.37,16.55-7.59,6.04-14.41,6.72-24.23,4.18ZM940.95,1702.73c.86-.77,1.97-1.54,3.23-2.3.31.16.65.34,1.02.54.57.39,1.12.8,1.66,1.25.29.29.6.58.88.88.26.28.5.59.75.87.51.69,1.01,1.4,1.46,2.13.2.4.38.8.54,1.21.09.33.17.66.24.99.02.37.04.73.03,1.1-.21,4.19-.32,4.87-2.36,10.28-2.32,5.4-7.03,8.94-10.28,8.27-.1-.05-.21-.1-.35-.16-.11-.09-.22-.17-.31-.24-.15-.15-.3-.31-.45-.48-.29-.39-.56-.79-.82-1.21-3.63-7.53-3.96-15.48,4.76-23.15ZM772.63,1680.51c-.34-1.06-.53-1.13-1.43-4.74-.13-.55-.23-1.1-.32-1.66,0-.13-.01-.28-.02-.48-.02-.41.03-1.06.06-1.55.06-.26.12-.52.21-.76.03-.08.08-.16.12-.24.14-.18.29-.34.46-.48.04-.02.07-.05.11-.07,1.6-.64,1.16-.68,3.6-.51.56.11,1.12.25,1.66.42.12.05.24.11.35.17.04.03.08.05.12.08.06.06.12.13.18.19,2.02,3.05,2.51,7.25,2.1,9.89-.64,3.07-1.59,5.94-2.7,8.55-.09-.16-.18-.31-.29-.48-1.47-2.81-1.77-2.56-4.21-8.34Z"/>
  <g>
    <path class="cls-1" d="M591.11,32.85c-7.28,3.65-8.71,11.25-3.43,15.77,1.31,1.12,5.5,3.54,6.28.75.47-1.69-3.62-5.51-3-6.95,1.26-2.47.98-1.92,1.86-2.6.1-.05.21-.1.33-.16.13-.04.26-.07.4-.1.89.08.92-.06,1.57.22-2.78,2.87-4.41,8.19-.88,10.99,4.65,3.17,10.31-2.11,11.67-6.51,2.14-7.78-6.99-15.32-14.79-11.41ZM596.64,40.7c.18.16.35.32.45.45.89,1.14.88.95,1.17,1.65-.2-.24-.42-.49-.68-.78-.37-.43-.66-.88-.95-1.33Z"/>
    <g>
      <path class="cls-1" d="M480.18,8.01c.06-.04.13-.07.19-.11.74-.44,1.1-.66-.19.11Z"/>
      <path class="cls-1" d="M602.82,38c-.79-2.03-2.94-2.52-4.93-2.54-2.34-.26-4.68,0-7.01.29-6.98-6.71-15.12-12.21-23.56-16.96-8.28-4.94-17.17-8.61-26.29-11.73-15.09-6.08-32.28-9.6-48.24-4.88-4.39,1.32-8.49,3.39-12.42,5.72-.14.08-.29.17-.44.26-5.56,3.06-10.35,7.29-14.6,11.95-8.94,9.14-15.27,21.86-13.02,34.83,1.2,9.04,8.34,15.8,16.47,19.28,5.73,3.08,12.17,4.24,18.55,5.19,7.76,1.28,15.72,2.13,23.47.28,6.53-1.19,12.67-3.79,18.64-6.6,5.96-2.96,11.59-6.51,17.27-9.94,5.52-3.26,11.38-5.84,17.09-8.73,5.41-2.94,9.2-4.95,12.17-5.67,2.61-.66,5.2-1.49,7.86-1.92,7.11-.39,5.66-.09,9.6.48,2.81,0,5.38-1.25,7.43-3.15.63-.62,1.24-1.44,1.61-2.18.13-.34.25-.68.38-1.03.07-.29.14-1.42.1-.6-.03.37-.04.49-.02.35.18-.91.16-1.83-.11-2.72ZM572.7,41c-6.61,3.28-7.39,4.35-14.98,8.19-8.04,3.91-15.43,8.95-22.99,13.68-7.94,4.42-12.18,6.46-19.95,8.48-6.8,1.84-13.83,1.26-22.66-.26-3.46-.6-6.94-1.2-10.3-2.24-2.71-.81-5.24-2.1-7.77-3.35-3.75-1.96-5.14-2.68-8.76-6.54-3.89-4.72-5.12-10.32-3.97-18.47,1.12-6.72,5.65-14.41,15.2-22.67,3.17-2.44,12.66-8.65,22.04-9.51,6.47-.92,17.93,0,26.08,2.4,4.49,1.19,8.79,2.98,13.17,4.5,6.74,2.28,13.4,4.79,19.66,8.19,6.06,3.08,11.72,6.86,17.75,9.97,2.82,1.41,5.73,2.62,8.68,3.73-3.83,1.01-7.58,2.38-11.21,3.89Z"/>
    </g>
    <g>
      <path class="cls-1" d="M712.96,8.01c-.06-.04-.13-.07-.19-.11-.74-.44-1.1-.66.19.11Z"/>
      <path class="cls-1" d="M590.31,38c.79-2.03,2.94-2.52,4.93-2.54,2.34-.26,4.68,0,7.01.29,6.98-6.71,15.12-12.21,23.56-16.96,8.28-4.94,17.17-8.61,26.29-11.73,15.09-6.08,32.28-9.6,48.24-4.88,4.39,1.32,8.49,3.39,12.42,5.72.14.08.29.17.44.26,5.56,3.06,10.35,7.29,14.6,11.95,8.94,9.14,15.27,21.86,13.02,34.83-1.2,9.04-8.34,15.8-16.47,19.28-5.73,3.08-12.17,4.24-18.55,5.19-7.76,1.28-15.72,2.13-23.47.28-6.53-1.19-12.67-3.79-18.64-6.6-5.96-2.96-11.59-6.51-17.28-9.94-5.52-3.26-11.38-5.84-17.09-8.73-5.41-2.94-9.2-4.95-12.17-5.67-2.61-.66-5.2-1.49-7.86-1.92-7.11-.39-5.66-.09-9.6.48-2.81,0-5.38-1.25-7.43-3.15-.63-.62-1.24-1.44-1.61-2.18-.13-.34-.25-.68-.38-1.03-.07-.29-.14-1.42-.1-.6.03.37.04.49.02.35-.18-.91-.16-1.83.11-2.72ZM620.44,41c6.61,3.28,7.39,4.35,14.98,8.19,8.04,3.91,15.43,8.95,22.99,13.68,7.94,4.42,12.18,6.46,19.95,8.48,6.8,1.84,13.83,1.26,22.66-.26,3.46-.6,6.94-1.2,10.3-2.24,2.71-.81,5.24-2.1,7.77-3.35,3.75-1.96,5.14-2.68,8.76-6.54,3.89-4.72,5.12-10.32,3.97-18.47-1.12-6.72-5.65-14.41-15.2-22.67-3.17-2.44-12.66-8.65-22.04-9.51-6.47-.92-17.93,0-26.08,2.4-4.49,1.19-8.79,2.98-13.17,4.5-6.74,2.28-13.4,4.79-19.66,8.19-6.06,3.08-11.72,6.86-17.75,9.97-2.82,1.41-5.73,2.62-8.68,3.73,3.83,1.01,7.58,2.38,11.21,3.89Z"/>
    </g>
    <path class="cls-1" d="M753.57,161.73c-.01,2.62-3.31,5.48-5.74,5.49-1.12.06-2.08-.89-2.02-2.01,0-.32.05-.62.13-.92-.02-6.19-.21-9.72-2.14-14.96-1.29-3.51-3.2-7.36-3.22-7.4-2.54-4.08-5.12-5.96-11.42-7.23-.6-.12-6.58-1.11-13.53,1.4-4.19,1.51-10.49,3.68-15.84,5.15-7.51,1.98-16.1-.73-21.11-6.61-3.66-4.07-5.23-9.36-7.94-13.99-2.39-4.51-7.75-7.8-12.57-8.12-10.14-.74-25.23,8.63-37.3-2.65-5.22-4.13-7.4-10.62-8.4-16.95-.98-6.09-1.88-12.87-2.52-15.96-1.02-6.11-2.54-14.96-5.31-20.43-2.66-5.25-6.35-7.25-8.72-12.63,27.05,6.46,21.55,31.9,26.82,48.96,2.29,7.41,5.28,11.08,12.33,12.19,6.33.99,9.85-.5,16.62-1.57,8.41-1.76,16.45-.92,22.97,5.12,3.86,3.75,7.86,14.75,9.06,16.52,4.48,6.65,9.5,8.87,16.16,8.69,2.21-.06,7.98-2.51,13.81-5.04,8.4-2.98,18.69-4.74,26.53.56,5.02,3.12,7.59,7.28,9.37,12.62,1.44,4.31,2.99,9.47,3.36,14.02.1,1.52.23,3.02.42,4.53.18.38.23.8.2,1.23Z"/>
    <path class="cls-1" d="M439.23,161.73c0,2.62,3.31,5.48,5.74,5.49,1.12.06,2.08-.89,2.02-2.01,0-.32-.05-.62-.13-.92.02-6.19.21-9.72,2.14-14.96,1.29-3.51,3.2-7.36,3.22-7.4,2.54-4.08,5.12-5.96,11.42-7.23.6-.12,6.58-1.11,13.53,1.4,4.19,1.51,10.49,3.68,15.84,5.15,7.51,1.98,16.1-.73,21.11-6.61,3.66-4.07,5.23-9.36,7.94-13.99,2.39-4.51,7.75-7.8,12.57-8.12,10.14-.74,25.23,8.63,37.3-2.65,5.22-4.13,7.4-10.62,8.4-16.95.98-6.09,1.88-12.87,2.52-15.96,1.02-6.11,2.54-14.96,5.31-20.43,2.66-5.25,6.35-7.25,8.72-12.63-27.05,6.46-21.55,31.9-26.82,48.96-2.29,7.41-5.28,11.08-12.33,12.19-6.33.99-9.85-.5-16.62-1.57-8.41-1.76-16.45-.92-22.97,5.12-3.86,3.75-7.86,14.75-9.06,16.52-4.48,6.65-9.5,8.87-16.16,8.69-2.21-.06-7.98-2.51-13.81-5.04-8.4-2.98-18.69-4.74-26.53.56-5.02,3.12-7.59,7.28-9.37,12.62-1.44,4.31-2.99,9.47-3.36,14.02-.1,1.52-.23,3.02-.42,4.53-.18.38-.23.8-.2,1.23Z"/>
  </g>
  <path class="cls-1" d="M586.82,1737.44c.05-2.12.52-4.27,1.33-6.36,2-5.15,4.62-8.49,9.34-11.06,5.68,6.9,9.51,18.87,3.81,25.81-2.96,3.61-8,4.88-11.25,1.01-2.35-2.81-3.32-6.06-3.24-9.4ZM579.02,1731.18c-2.3,10.94,2.35,29.94,16.9,28.77,13.65-1.1,21.21-25.13,10.4-44.4,9.37-14.62,26.64-19.76,27.6-20.87,2.52-2.91,2.24-6.4-.93-7.41-1.32-.42-4.7.81-5.84,1.39-9.36,4.76-20.84,15.12-29.07,21.55-10.94-10.99-20.99-18.59-35.44-23.84-3.37-1.23-10.26-3.96-10.84,1.14.2,2.61,1.03,2.41,3.15,4.17,2.04,1.69,21.24,10.25,35.24,20.14-5.39,5.55-9.59,11.96-11.16,19.38Z"/>
</svg>